<?xml version="1.0" encoding="utf-8"?>
<!-- Generator: Adobe Illustrator 19.2.1, SVG Export Plug-In . SVG Version: 6.00 Build 0)  -->
<svg version="1.1" id="Layer_1" xmlns="http://www.w3.org/2000/svg" xmlns:xlink="http://www.w3.org/1999/xlink" x="0px" y="0px"
	 viewBox="0 0 720 72" style="enable-background:new 0 0 720 72;" xml:space="preserve">
<style type="text/css">
	.st0{fill:#E31837;}
	.st1{fill:#012169;}
</style>
<g>
	<g>
		<g>
			<path class="st0" d="M663.8,68.1c0-1.6,1.3-2.8,3-2.8c1.7,0,3,1.3,3,2.8s-1.3,2.9-3,2.9S663.8,69.7,663.8,68.1 M664.4,68.1
				c0,1.3,1.1,2.3,2.5,2.3c1.3,0,2.4-1,2.4-2.3c0-1.3-1.1-2.2-2.4-2.2C665.3,65.9,664.4,66.9,664.4,68.1"/>
			<path class="st0" d="M668.2,69.7h-0.6l-1-1.5H666v1.5h-0.4v-3.2h1.5c0.3,0,0.6,0,0.8,0.2c0.3,0.1,0.4,0.4,0.4,0.7
				c0,0.6-0.5,0.9-1.1,0.9L668.2,69.7z M666.6,67.9c0.5,0,1.1,0.1,1.1-0.5c0-0.4-0.4-0.5-0.8-0.5H666v1H666.6z"/>
		</g>
		<g>
			<path class="st0" d="M652.5,71c20.9-17.5,50.4-34.5,66.5-40.6c-2.5-1.6-6.4-3.8-10.8-6.2c-20.8,6.7-45.2,21.6-66.9,38.3
				C645,65.3,648.9,68.1,652.5,71z"/>
			<path class="st1" d="M642.9,23.5c-3.1-1.5-6.5-2.8-9.1-4c-7.9,3.8-18.1,9.5-31.1,18.5c2.8,1.5,5.8,3.2,9,5
				C621.7,35.9,631.7,29.1,642.9,23.5z"/>
			<path class="st0" d="M661.6,15.2c-3.8-2-17-6.8-26-8.8c-2.7,1-6.5,2.4-9.1,3.5c3.3,0.9,15.6,4.1,26,9.2
				C655.2,17.8,659,16.2,661.6,15.2z"/>
			<path class="st1" d="M617,13.9c-11.7,5.2-23.9,12.4-30.6,16.6c2.4,1.1,4.8,1.9,8.1,3.5c14.8-9.7,26.3-15.6,30.9-17.6
				C622.1,15.3,619,14.5,617,13.9z"/>
			<path class="st0" d="M670.3,12.2c2.7-0.9,5.8-1.7,8.5-2.4C671,6.5,661.3,3.1,652.5,1c-1.4,0.4-5.6,1.5-8.5,2.3
				C647,4.2,656.9,6.4,670.3,12.2z"/>
			<path class="st0" d="M621.2,48.7c3.2,1.8,6.6,4.4,9.9,6.5c21.8-16.5,43.4-29.2,67-36.4c-3.3-1.7-6.2-3.1-9.9-4.9
				C674,17.4,649.8,26.8,621.2,48.7z"/>
		</g>
	</g>
	<path class="st1" d="M1,66h16c8.1,0,11.9-4.1,11.9-9.8c0-4.7-2.5-7.8-7.7-8.7c4.6-1.1,6.7-3.8,6.7-7.8c0-5-3.8-9.1-11.9-9.1H1.1
		L1,66L1,66z M14.9,50.9c3,0,5.1,1.5,5.1,4.4c0,3.1-2,4.4-5.1,4.4H9.7v-8.8L14.9,50.9L14.9,50.9z M13.9,36.7c3,0,5.1,1.3,5.1,4.2
		s-2,4.2-5.1,4.2H9.7v-8.3L13.9,36.7L13.9,36.7z M61,30.4h-9L38.4,66h9.1l2.5-7.4h13.2l2.5,7.4h9.2L61,30.4z M56.5,39l4.3,13.1h-8.8
		L56.5,39z M120.3,30.4H112v23.8L96.4,30.4h-9.3V66h8.3V42.3L111,66h9.3V30.4z M158.5,66l-12-18.1V66h-8.9V30.4h8.9v17.1l11.4-17.1
		h9.9l-12,17.1L168.8,66H158.5z M200.2,48.2c0,7.1,4.4,11.5,10.1,11.5s10.1-4.4,10.1-11.5s-4.4-11.5-10.1-11.5
		C204.6,36.7,200.2,41.1,200.2,48.2L200.2,48.2z M190.9,48.2c0.1-10.4,7.6-18.5,19.4-18.5s19.3,8.2,19.4,18.5
		c-0.1,10.4-7.6,18.5-19.4,18.5S191,58.6,190.9,48.2L190.9,48.2z M241.9,66h8.9V52h11.6v-6.8h-11.6v-8h14l1.6-6.8h-24.4L241.9,66
		L241.9,66z M307.7,30.4h-9L285.1,66h9.1l2.5-7.4h13.2l2.5,7.4h9.2L307.7,30.4z M303.3,39l4.3,13.1h-8.8L303.3,39z M374.2,30.4
		h-10.4l-9.5,19.2l-9.5-19.2h-10.4V66h8V42.2L354.2,66L366,42.2V66h8.3L374.2,30.4L374.2,30.4z M391.4,66h24.9v-6.8h-16.1v-8H413
		v-6.6h-12.7v-7.4h14.7l1.6-6.8h-25.1V66z M450.1,66h9.7l-9.1-15c5-1.4,7.4-4.8,7.4-9.7c0-6.4-4-10.7-13-10.7h-14.1V66h8.7v-14h2.4
		L450.1,66z M443.5,37c3.7,0,5.6,1.6,5.6,4.6s-1.9,4.6-5.6,4.6h-3.8V37L443.5,37L443.5,37z M473.1,66h8.9v-2.7V30.5h-8.9V66z
		 M525.6,56.4c-3.4,2.3-6.4,3.1-9.5,3.1c-6.8,0-11.6-4.6-11.6-11.4s4.7-11.4,11.3-11.4c3,0,6,0.8,9.3,3.1v-8.1
		c-3-1.7-6.5-2.3-10.4-2.3c-12.1,0-19.6,8.2-19.7,18.5c0.1,10.5,7.5,18.5,19.7,18.5c4.1,0,7.6-0.7,10.8-2.3L525.6,56.4L525.6,56.4z
		 M558.1,30.4h-9L535.5,66h9.1l2.5-7.4h13.2l2.5,7.4h9.2L558.1,30.4z M553.7,39l4.3,13.1h-8.8L553.7,39z"/>
</g>
</svg>
