<?xml version="1.0" encoding="utf-8"?>
<svg viewBox="1.7000000476837158 4 20.600000381469727 16.200000762939453" xmlns="http://www.w3.org/2000/svg">
  <g id="ICON_ART">
    <path d="M21.6 11.1c0-.5-.1-.9-.3-1.1l1-.9-.7-.8L20 9.8l.4.4s.3.3.3.8c0 .6-.4 1.6-2 2.9L15 10.6c.1 0 .2.1.4.1.4 0 .8 0 1.1-.3L18 9.2l-.6-.8-1.5 1.2c-.1.1-.2.1-.3.1-.6-.1-1.3-.8-1.6-1.2l-.3-.4-.4.3s-1.6 1.2-3.1 2.4c-.3.2-.6.3-.9.3-.4-.1-.8-.4-1.1-.6l4.5-3.6c1.7-1.4 2.8-1.5 4.7-.5l.3.1L20 4.8l-.6-.8-1.8 1.3c-2.1-1-3.5-.8-5.5.8l-.1.1c-1.9-1.2-2.8-1.5-4.8-1L5.6 4l-.6.8 2 1.5.2-.1c1.7-.4 2.3-.4 3.9.6l-4.3 3.4.3.4S8 11.8 9.2 12h.3c.5 0 .9-.2 1.3-.5 1.1-.8 2.2-1.7 2.7-2.1.3.3.7.7 1.2 1l-.6.7 4.8 4.4-.6.5-4.8-4.2-.7.8 4.7 4-.7.5-4.6-3.8-.6.8 4.4 3.7-.7.5-4.2-3.5-.6.8 4 3.4c-.6.4-.9.2-1.1 0l-6.5-4.9c-1.1-1.1-1.5-2-1.7-3.6v-.2L2.3 7.8l-.6.7 2.5 2.3c.3 1.6.8 2.7 2 4 0 0 6.5 4.8 6.5 4.9.3.2.6.5 1.1.5.4 0 .8-.1 1.4-.5l5.3-3.9-1.1-1.1c1.4-1.3 2.2-2.5 2.2-3.6z" fill="#e31837"/>
  </g>
</svg>