<svg width="1437" height="690" xmlns="http://www.w3.org/2000/svg">
 <g display="inline">
  <title>background</title>
  <path fill="#ebe5dc" stroke-width="0" stroke-linejoin="null" stroke-linecap="null" d="m112.888916,334.777832l-119.888916,80.222168l-15,227l11,58l518,2l31,-134l676,-431l197,-43l-5,-103l-767,19l-163,43l-118,42l-245.111084,239.777832z" id="svg_5"/>
 </g>
 <g>
  <title>Layer 1</title>
  <path fill="#F9F7F4" d="m137.298004,348.328003c-38.788002,-17.528992 -96.095001,-42.397003 -130.611999,-54.791992c113.166,-65.657013 226.740997,-153.946014 357.622009,-201.048019c35.207001,10.805 86.056,27.803001 125.39801,41.981003c-106.170013,40.085983 -242.940018,144.113007 -352.40802,213.859009m170.347992,48.369995c98.015991,-71.283997 219.916992,-147.764008 333.585022,-204.596008c-43.297058,-17.326004 -91.732056,-36.143997 -125.498047,-48.332993c-92.944977,37.015991 -229.220978,142.328995 -345.214966,219.656021c47.389008,21.719971 92.338013,8.806976 137.127991,33.27298m335.359985,-386.414009c-38.836975,8.448999 -94.176025,22.924 -128.802979,32.944c85.513,20.931999 222.020996,27.327995 315.234009,64.478004c39.416016,-15.364998 88.089966,-32.058998 126.97699,-43.273003c-111.150024,-43.568996 -248.877991,-41.878998 -313.40802,-54.148998m-299.717957,56.784c80.177002,21.714996 209.636963,65.626007 323.839966,111.602005c45.161011,-22.044006 86.508972,-40.786011 131.462036,-59.129005c-108.571045,-44.306999 -245.304016,-50.479004 -314.207001,-67.825996c-50.347992,15.119003 -97.113983,-3.314999 -141.095001,15.353004m-29.565033,374.999992c50.607025,24.437988 116.523987,64.296997 161.89801,92.137024c222.476959,-189.52301 496.874969,-341.063019 709.054047,-409.998009c-65.084106,-26.372002 -123.796997,-48.616997 -164.394958,-60.599003c-246.483032,69.091 -514.025024,226.033993 -706.557037,378.459988m898.993988,-306.278992c-241.677979,86.520996 -509.080994,259.040985 -693.468994,425.583984c60.39801,38.507996 124.874023,81.268005 184.192993,122.707031c147.468994,-139.390991 471.91394,-345.982025 724.55896,-447.897003c-64.994019,-32.543991 -168,-77.5 -215.282959,-100.393997" id="svg_1"/>
 </g>
</svg>
