<?xml version="1.0" encoding="utf-8"?>
<!-- Generator: Adobe Illustrator 19.2.1, SVG Export Plug-In . SVG Version: 6.00 Build 0)  -->
<svg version="1.1" id="_x3C_Layer_x3E_" xmlns="http://www.w3.org/2000/svg" xmlns:xlink="http://www.w3.org/1999/xlink" x="0px"
	 y="0px" width="1130" height="607.2" viewBox="0 0 1130 607.2" style="enable-background:new 0 0 1130 607.2;" xml:space="preserve">
<style type="text/css">
	.st0{fill:#AE1230;}
	.st1{fill:url(#SVGID_1_);}
	.st2{fill:url(#SVGID_2_);}
	.st3{fill:url(#SVGID_3_);}
	.st4{fill:url(#SVGID_4_);}
	.st5{fill:url(#SVGID_5_);}
	.st6{fill:url(#SVGID_6_);}
</style>
<g>
	<g>
		<rect class="st0" width="1130" height="607.2"/>
	</g>
	<g>
		<linearGradient id="SVGID_1_" gradientUnits="userSpaceOnUse" x1="561.3037" y1="195.0152" x2="633.8577" y2="331.4695">
			<stop  offset="0" style="stop-color:#E31837"/>
			<stop  offset="0.2921" style="stop-color:#CF1634;stop-opacity:0.7079"/>
			<stop  offset="0.7304" style="stop-color:#B71331;stop-opacity:0.2696"/>
			<stop  offset="1" style="stop-color:#AE1230;stop-opacity:0"/>
		</linearGradient>
		<path class="st1" d="M255.8,391.9c39.9,19.3,91.9,50.7,127.7,72.7c175.5-149.5,392-269.1,559.4-323.4
			c-51.3-20.8-97.7-38.4-129.7-47.8C618.7,147.8,407.7,271.7,255.8,391.9"/>
		<linearGradient id="SVGID_2_" gradientUnits="userSpaceOnUse" x1="183.4862" y1="158.0987" x2="223.4673" y2="236.566">
			<stop  offset="0" style="stop-color:#AE1230;stop-opacity:0"/>
			<stop  offset="0.402" style="stop-color:#C01432;stop-opacity:0.402"/>
			<stop  offset="1" style="stop-color:#E31837"/>
		</linearGradient>
		<path class="st2" d="M116.6,291c-30.6-13.8-75.8-33.4-103-43.2c89.3-51.8,178.9-94.5,282.1-131.7c27.8,8.5,67.9,21.9,98.9,33.1
			C310.9,180.9,203,236,116.6,291z"/>
		<linearGradient id="SVGID_3_" gradientUnits="userSpaceOnUse" x1="300.3112" y1="203.7494" x2="356.2945" y2="293.3415">
			<stop  offset="0" style="stop-color:#AE1230;stop-opacity:0"/>
			<stop  offset="0.402" style="stop-color:#C01432;stop-opacity:0.402"/>
			<stop  offset="1" style="stop-color:#E31837"/>
		</linearGradient>
		<path class="st3" d="M251,356.1c77.3-56.2,173.5-116.6,263.2-161.4c-34.2-13.7-72.4-28.5-99-38.1
			c-73.3,29.2-180.8,85.4-272.3,146.4C180.2,320.1,215.6,336.8,251,356.1z"/>
		<linearGradient id="SVGID_4_" gradientUnits="userSpaceOnUse" x1="582.7844" y1="90.411" x2="594.7304" y2="51.3374">
			<stop  offset="0" style="stop-color:#DD193E"/>
			<stop  offset="0.4458" style="stop-color:#CB1639;stop-opacity:0.5542"/>
			<stop  offset="1" style="stop-color:#AE1230;stop-opacity:0"/>
		</linearGradient>
		<path class="st4" d="M515.5,24.3c-30.6,6.7-74.3,18.1-101.6,26c67.5,16.5,175.2,48.5,248.7,77.8c31.1-12.1,69.5-25.3,100.2-34.1
			C675.1,59.6,566.5,34,515.5,24.3z"/>
		<linearGradient id="SVGID_5_" gradientUnits="userSpaceOnUse" x1="446.7951" y1="153.6087" x2="472.8551" y2="77.9251">
			<stop  offset="0" style="stop-color:#DD193E"/>
			<stop  offset="0.4458" style="stop-color:#CB1639;stop-opacity:0.5542"/>
			<stop  offset="1" style="stop-color:#AE1230;stop-opacity:0"/>
		</linearGradient>
		<path class="st5" d="M279.9,96.1c63.3,17.1,165.4,51.8,255.5,88c35.6-17.4,68.2-32.2,103.7-46.6c-85.7-35-193.5-66.8-247.9-80.4
			C351.5,68.9,314.6,81.3,279.9,96.1z"/>
		<linearGradient id="SVGID_6_" gradientUnits="userSpaceOnUse" x1="713.93" y1="270.512" x2="811.8326" y2="433.4493">
			<stop  offset="0" style="stop-color:#E31837"/>
			<stop  offset="0.1663" style="stop-color:#D31635;stop-opacity:0.8337"/>
			<stop  offset="0.4498" style="stop-color:#BF1432;stop-opacity:0.5502"/>
			<stop  offset="0.7298" style="stop-color:#B21231;stop-opacity:0.2702"/>
			<stop  offset="1" style="stop-color:#AE1230;stop-opacity:0"/>
		</linearGradient>
		<path class="st6" d="M965,150.3C774.3,218.5,563.4,354.6,417.9,486c47.6,30.4,98.5,64.1,145.3,96.8
			c116.3-110,342.8-288.7,542.1-369.1C1054,188,1003.5,166.2,965,150.3"/>
	</g>
</g>
</svg>
