<svg width="1437" height="690" xmlns="http://www.w3.org/2000/svg">
 <g display="inline">
  <title>background</title>
  <path id="svg_5" d="m112.888916,334.777832l-119.888916,80.222168l-15,227l11,58l518,2l31,-134l676,-431l197,-43l-5,-103l-767,19l-163,43l-118,42l-245.111084,239.777832z" stroke-linecap="null" stroke-linejoin="null" stroke-width="0" fill="#c41230"/>
 </g>
 <g>
  <title>Layer 1</title>
  <path id="svg_1" d="m137.298004,348.328003c-38.788002,-17.528992 -96.095005,-42.397003 -130.612004,-54.791992c113.165998,-65.657013 226.741002,-153.946014 357.622014,-201.048012c35.207001,10.805 86.056,27.803001 125.39801,41.980995c-106.170013,40.085999 -242.940018,144.113007 -352.40802,213.859009m170.347992,48.369995c98.015991,-71.283997 219.916992,-147.764008 333.585022,-204.595993c-43.297058,-17.326004 -91.732056,-36.144012 -125.498047,-48.333008c-92.944977,37.016006 -229.220978,142.328995 -345.214981,219.656021c47.389008,21.719971 92.337997,8.806976 137.128006,33.27298m335.359985,-386.413998c-38.836975,8.448999 -94.176025,22.924 -128.802979,32.944c85.513,20.932003 222.020996,27.327999 315.234009,64.478001c39.416016,-15.364998 88.089966,-32.058998 126.97699,-43.273003c-111.150024,-43.568998 -248.877991,-41.878998 -313.40802,-54.148998m-299.717987,56.784c80.177002,21.714996 209.636993,65.625999 323.839996,111.601997c45.161011,-22.043991 86.508972,-40.785995 131.462036,-59.128998c-108.571045,-44.306999 -245.304016,-50.479004 -314.207031,-67.826c-50.347992,15.118999 -97.113983,-3.314999 -141.095001,15.353001m-29.565002,374.999992c50.606995,24.437988 116.523987,64.296997 161.89801,92.137024c222.476959,-189.52301 496.874969,-341.063004 709.054047,-409.998009c-65.084106,-26.372002 -123.796997,-48.616997 -164.39502,-60.598999c-246.483032,69.090996 -514.025024,226.033989 -706.557037,378.459984m898.994049,-306.278992c-241.67804,86.520996 -509.081055,259.040985 -693.469055,425.583984c60.39801,38.507996 124.874023,81.268005 184.192993,122.707031c147.468994,-139.390991 471.914001,-345.982025 724.559021,-447.897018c-64.994019,-32.543991 -168,-77.5 -215.282959,-100.393997" fill="#DC1431"/>
 </g>
</svg>
