<?xml version="1.0" encoding="utf-8"?>
<!-- Generator: Adobe Illustrator 15.0.2, SVG Export Plug-In . SVG Version: 6.00 Build 0)  -->
<!DOCTYPE svg PUBLIC "-//W3C//DTD SVG 1.1//EN" "http://www.w3.org/Graphics/SVG/1.1/DTD/svg11.dtd">
<svg version="1.1" id="Layer_1" xmlns="http://www.w3.org/2000/svg" xmlns:xlink="http://www.w3.org/1999/xlink" x="0px" y="0px"
	 width="86px" height="84px" viewBox="-16 -36.31 86 84" enable-background="new -16 -36.31 86 84" xml:space="preserve">
<g>
	<path fill="none" d="z"/>
	<path fill="#D1C9C0" d="M25.992,4.272c1.648,1.334,14.504,5.477,17.473,7.742c2.965,2.266,4.611,24.295,4.611,24.295H16.083h-0.068
		h0.053H16H-16c0,0,1.651-22.029,4.616-24.295C-8.417,9.749,4.44,5.606,6.087,4.272l3.232,9.773l6.869-5.332l6.454,5.332
		L25.992,4.272z"/>
	<path fill="#D1C9C0" d="M10.754-27.888l3.4-0.053c1.346,2.781,5.206,7.277,15.955,6.241c-1.385-8.349-7.156-14.61-14.071-14.61
		c-7.023,0-12.864,6.465-14.128,15.011C7.576-21,10.724-27.821,10.754-27.888z"/>
	<path fill="#D1C9C0" d="M12.548-25.548c-1.834,2.599-5.228,6.076-10.229,6.076c-0.215,0-0.436-0.013-0.653-0.027
		C1.807-9.456,8.18-1.368,16.039-1.368c7.948,0,14.387-8.27,14.387-18.469c0-0.027-0.006-0.049-0.006-0.072
		C20.341-18.952,15.118-22.478,12.548-25.548z"/>
	<path fill="#0063A9" d="M50.408,8.032c-10.82,0-19.588,8.873-19.588,19.826c0,10.949,8.768,19.832,19.588,19.832
		C61.227,47.69,70,38.808,70,27.858C70,16.905,61.227,8.032,50.408,8.032z M59.195,30.183h-6.5v6.559c0,1.289-1.016,2.33-2.287,2.33
		c-1.268,0-2.293-1.041-2.293-2.33v-6.559h-6.482c-1.271,0-2.289-1.039-2.289-2.32c0-1.285,1.018-2.32,2.289-2.32h6.482v-6.568
		c0-1.283,1.025-2.318,2.293-2.318c1.271,0,2.287,1.035,2.287,2.318v6.568h6.5c1.262,0,2.289,1.035,2.289,2.32
		C61.484,29.144,60.457,30.183,59.195,30.183z"/>
	<path fill="none" d="z"/>
</g>
</svg>
