<?xml version="1.0" standalone="no"?><!-- Generator: Adobe Fireworks CS5, Export SVG Extension by Aaron Beall (http://fireworks.abeall.com) . Version: 0.6.0  --><!DOCTYPE svg PUBLIC "-//W3C//DTD SVG 1.1//EN" "http://www.w3.org/Graphics/SVG/1.1/DTD/svg11.dtd"><svg id="" viewBox="0 0 42 50" style="background-color:#ffffff00" version="1.1"	xmlns="http://www.w3.org/2000/svg" xmlns:xlink="http://www.w3.org/1999/xlink" xml:space="preserve"	x="0px" y="0px" width="42px" height="50px">	<g>		<path d="M 42 44.2671 C 42 47.4332 32.5957 50 21 50 C 9.4043 50 0 47.4332 0 44.2671 C 0 41.1042 9.4043 38.5407 21 38.5407 C 32.5957 38.5407 42 41.1042 42 44.2671 L 42 44.2671 Z" fill="#d1c9c0"/>		<path d="M 21.0174 44.7206 C 21.0174 44.7206 4.641 22.9151 4.641 15.5297 C 4.641 6.9518 11.9657 0 21 0 C 30.0308 0 37.359 6.9518 37.359 15.5297 C 37.359 25.5282 21.0174 44.7206 21.0174 44.7206 L 21.0174 44.7206 ZM 20.9966 6.4617 C 16.7218 6.4617 13.2532 9.7503 13.2532 13.8074 C 13.2532 17.8678 16.7218 21.1599 20.9966 21.1599 C 25.2782 21.1599 28.7434 17.8678 28.7434 13.8074 C 28.7434 9.7503 25.2782 6.4617 20.9966 6.4617 L 20.9966 6.4617 Z" fill="#0078ba"/>	</g></svg>