<?xml version="1.0" encoding="utf-8"?>
<!-- Generator: Adobe Illustrator 24.3.0, SVG Export Plug-In . SVG Version: 6.00 Build 0)  -->
<svg version="1.1" id="Layer_1" xmlns="http://www.w3.org/2000/svg" xmlns:xlink="http://www.w3.org/1999/xlink" x="0px" y="0px"
	 viewBox="0 0 117 92" enable-background="new 0 0 117 92" xml:space="preserve">
<g>
	<path fill="#012169" d="M12.8,9.5c-1.7,0-3.2,1.4-3.2,3.2c0,1.5,1,2.7,2.4,3.1v15.9h1.6v-16c1.4-0.4,2.4-1.6,2.4-3.1
		C16,10.9,14.6,9.5,12.8,9.5 M12.8,14.3c-0.9,0-1.6-0.7-1.6-1.6c0-0.9,0.7-1.6,1.6-1.6c0.9,0,1.6,0.7,1.6,1.6
		C14.4,13.5,13.7,14.3,12.8,14.3"/>
	<path fill="#012169" d="M20.7,12.7c0-4.4-3.6-7.9-7.9-7.9c-4.4,0-7.9,3.6-7.9,7.9c0,2.7,1.4,5.2,3.7,6.7L9.4,18
		c-1.9-1.2-3-3.2-3-5.4c0-3.5,2.8-6.3,6.3-6.3S19,9.1,19,12.6c0,2.3-1.3,4.4-3.3,5.5l0.8,1.4C19.2,18.2,20.7,15.5,20.7,12.7"/>
	<path fill="#012169" d="M12.8,0C5.8,0,0.1,5.7,0.1,12.7c0,5.4,3.4,10.2,8.4,11.9L9,23.1c-4.4-1.6-7.4-5.8-7.4-10.5
		c0-6.1,5-11.1,11.1-11.1s11.1,5,11.1,11.1c0,4.7-3,8.9-7.4,10.5l0.5,1.5c5-1.8,8.4-6.6,8.4-11.9C25.5,5.7,19.8,0,12.8,0"/>
</g>
<g>
	<path fill="#012169" d="M7.7,64.3V51.1H3.1v-1h10.3v1H8.9v13.2C8.9,64.3,7.7,64.3,7.7,64.3z"/>
	<path fill="#012169" d="M15.9,55.2c1.3-0.7,2.8-1.2,3.7-1.2c2.7,0,2.8,1.8,2.8,3.1v7.2h-1.2v-6.8c0-1.5-0.2-2.5-2-2.5
		c-1.1,0-2.5,0.6-3.5,1.1v8.2h-1.2V49.5h1.1v3.1c0,0.4,0,2,0,2.5L15.9,55.2z"/>
	<path fill="#012169" d="M31.7,57.4v7h-1l-0.1-1.1l0,0c-1.6,1.3-2.9,1.3-3.5,1.3c-2.3,0-2.9-1.6-2.9-2.8c0-1.9,1.4-2.9,3.3-3
		l3.2-0.2v-0.8c0-1.9-0.5-2.6-2.3-2.6c-1,0-2.1,0.2-3.2,0.6L24.9,55c1.2-0.5,2.5-0.8,3.7-0.8C30.5,54.1,31.7,55,31.7,57.4z
		 M27.7,59.5c-1.6,0.1-2.4,0.8-2.4,2c0,1.4,0.7,2,2.1,2c1,0,2-0.5,3.1-1.4v-2.8L27.7,59.5z"/>
	<path fill="#012169" d="M35.7,51.9v2.3h3v0.9h-3v6.7c0,1,0.3,1.7,1.5,1.7c0.5,0,1.1-0.1,1.9-0.4l0.2,0.8c-0.7,0.3-1.6,0.5-2.4,0.5
		c-1.5,0-2.4-0.6-2.4-2.3v-7H33v-0.6l1.5-0.4l0.4-2L35.7,51.9z"/>
	<path fill="#012169" d="M52.3,62.8L52.3,62.8l5.4-12.7h1.2v14.2h-1.2V53l0,0l-4.8,11.4h-1.2L47,53.3l0,0v11.1h-1.2V50.1H47
		L52.3,62.8z"/>
	<path fill="#012169" d="M68.7,57.4v7h-1l-0.1-1.1l0,0c-1.6,1.3-2.9,1.3-3.5,1.3c-2.3,0-2.9-1.6-2.9-2.8c0-1.9,1.4-2.9,3.3-3
		l3.2-0.2v-0.8c0-1.9-0.5-2.6-2.3-2.6c-1,0-2.1,0.2-3.2,0.6L61.9,55c1.2-0.5,2.5-0.8,3.7-0.8C67.5,54.1,68.7,55,68.7,57.4z
		 M64.6,59.5c-1.6,0.1-2.4,0.8-2.4,2c0,1.4,0.7,2,2.1,2c1,0,2-0.5,3.1-1.4v-2.8L64.6,59.5z"/>
	<path fill="#012169" d="M77.5,63.3c-0.9,0.7-2.1,1.2-3.3,1.2c-2.8,0-3.7-2.2-3.7-5c0-3.1,1.1-5.5,4-5.5c0.8,0,2,0.2,3,0.8v-5.2h1.2
		v14.8h-1L77.5,63.3L77.5,63.3z M77.4,55.8c-0.6-0.4-1.8-0.8-2.8-0.8c-1.6,0-2.9,1.1-2.9,4.5c0,3.1,1.1,4,2.8,4
		c0.9,0,2.3-0.6,2.9-1.2V55.8z"/>
	<path fill="#012169" d="M88.6,58.9v0.6h-6.9c0,2.1,0.6,4.1,3.1,4.1c1.2,0,2.1-0.2,3.2-0.8l0.3,0.8c-1.2,0.6-2.3,0.9-3.6,0.9
		c-3.5,0-4.3-2.4-4.3-5.2c0-1.7,0.5-5.3,4.2-5.3C88.7,54,88.6,57.8,88.6,58.9z M81.7,58.6h5.8c0-2.2-0.6-3.7-2.7-3.7
		C82.5,54.9,81.9,56.7,81.7,58.6z"/>
	<path fill="#012169" d="M104.1,64.3l-1.2-3.9H97c-0.4,1.3-0.8,2.6-1.2,3.9h-1.3l4.6-14.2h1.6c1.6,4.7,3.1,9.5,4.6,14.2H104.1z
		 M100.6,53.5c-0.2-0.6-0.5-1.7-0.7-2.3h-0.1l-0.7,2.3l-1.9,6h5.2C101.9,57.5,101.3,55.4,100.6,53.5z"/>
	<path fill="#012169" d="M108,64.3h-1.2V49.5h1.2V64.3z"/>
	<path fill="#012169" d="M111.8,64.3h-1.2V49.5h1.2V64.3z"/>
	<path fill="#012169" d="M5.9,78.8V81h3v0.9h-3v6.7c0,1,0.3,1.7,1.5,1.7c0.5,0,1.1-0.1,1.9-0.4l0.2,0.8c-0.7,0.3-1.6,0.5-2.4,0.5
		c-1.5,0-2.4-0.6-2.4-2.3v-7H3.3v-0.6l1.5-0.4l0.4-2L5.9,78.8z"/>
	<path fill="#012169" d="M11.7,82c1.3-0.7,2.8-1.2,3.7-1.2c2.7,0,2.8,1.8,2.8,3.1v7.2H17v-6.8c0-1.5-0.2-2.5-2-2.5
		c-1.1,0-2.5,0.6-3.5,1.1v8.2h-1.2V76.4h1.1v3.1c0,0.4,0,2,0,2.5H11.7z"/>
	<path fill="#012169" d="M28.2,85.7v0.6h-6.9c0,2.1,0.6,4.1,3.1,4.1c1.2,0,2.1-0.2,3.2-0.8l0.3,0.8c-1.2,0.6-2.3,0.9-3.6,0.9
		c-3.5,0-4.3-2.4-4.3-5.2c0-1.7,0.5-5.3,4.2-5.3C28.2,80.9,28.2,84.6,28.2,85.7z M21.3,85.5H27c0-2.2-0.6-3.7-2.7-3.7
		C22.1,81.8,21.4,83.6,21.3,85.5z"/>
	<path fill="#012169" d="M35.5,91.2V76.9h4c4.5,0,6.1,3.3,6.1,7.1c0,3.9-1.7,7.1-6.3,7.1L35.5,91.2L35.5,91.2z M36.7,77.9v12.3H39
		c1.2,0,5.2-0.1,5.2-6c0-6.1-3.6-6.3-5.1-6.3H36.7z"/>
	<path fill="#012169" d="M48.7,79.3c-0.5,0-0.8-0.4-0.8-0.8c0-0.5,0.4-0.9,0.8-0.9c0.5,0,0.9,0.4,0.9,0.9
		C49.5,78.9,49.1,79.3,48.7,79.3z M48.1,91.2V81h1.2v10.1L48.1,91.2L48.1,91.2z"/>
	<path fill="#012169" d="M52.8,81.9h-1.4v-0.7l1.4-0.3v-1.8c0-2,1.1-3,3.1-3c0.5,0,1.2,0.1,1.8,0.2l-0.1,0.9c-0.5-0.1-1-0.1-1.5-0.1
		c-1.4,0-2.1,0.5-2.1,2V81h3v0.9h-3v9.2h-1.1v-9.2H52.8z"/>
	<path fill="#012169" d="M59.4,81.9H58v-0.7l1.4-0.3v-1.8c0-2,1.1-3,3.1-3c0.5,0,1.2,0.1,1.8,0.2l-0.1,0.9c-0.5-0.1-1-0.1-1.5-0.1
		c-1.4,0-2.1,0.5-2.1,2V81h3v0.9h-3v9.2h-1.1v-9.2H59.4z"/>
	<path fill="#012169" d="M72.7,85.7v0.6h-6.9c0,2.1,0.6,4.1,3.1,4.1c1.2,0,2.1-0.2,3.2-0.8l0.3,0.8c-1.2,0.6-2.3,0.9-3.6,0.9
		c-3.5,0-4.3-2.4-4.3-5.2c0-1.7,0.5-5.3,4.2-5.3C72.8,80.9,72.7,84.6,72.7,85.7z M65.8,85.5h5.8c0-2.2-0.6-3.7-2.7-3.7
		C66.7,81.8,66,83.6,65.8,85.5z"/>
	<path fill="#012169" d="M75.9,82.7c0.9-1.2,2.5-1.9,3.8-1.9V82c-0.9,0-2.5,0.2-3.7,1.7v7.5h-1.2V81h1.1L75.9,82.7z"/>
	<path fill="#012169" d="M88.6,85.7v0.6h-6.9c0,2.1,0.6,4.1,3.1,4.1c1.2,0,2.1-0.2,3.2-0.8l0.3,0.8c-1.2,0.6-2.3,0.9-3.6,0.9
		c-3.5,0-4.3-2.4-4.3-5.2c0-1.7,0.5-5.3,4.2-5.3C88.6,80.9,88.6,84.6,88.6,85.7z M81.6,85.5h5.8c0-2.2-0.6-3.7-2.7-3.7
		C82.5,81.8,81.8,83.6,81.6,85.5z"/>
	<path fill="#012169" d="M96.9,91.2v-6.8c0-1.5-0.3-2.5-2-2.5c-1.1,0-2.5,0.6-3.5,1.1v8.2h-1.2V81h1.1c0,0.1,0,0.8,0,0.9
		c0,0,0,0,0.1,0c1.2-0.8,2.7-1.2,3.7-1.2c2.6,0,2.8,1.6,2.8,3V91h-1V91.2z"/>
	<path fill="#012169" d="M104.2,90.4c1.1,0,1.9-0.3,2.9-0.9l0.4,0.8c-0.8,0.6-2.1,1-3.4,1c-3.2,0-4.3-2.1-4.3-5.1
		c0-2.1,0.7-5.4,4.4-5.4c0.9,0,2,0.2,2.9,0.7l-0.4,0.9c-1-0.5-1.8-0.6-2.4-0.6c-2.2,0-3.3,1.7-3.3,4.3
		C101.1,88.5,101.8,90.4,104.2,90.4z"/>
	<path fill="#012169" d="M116.9,85.7v0.6H110c0,2.1,0.6,4.1,3.1,4.1c1.2,0,2.1-0.2,3.2-0.8l0.3,0.8c-1.2,0.6-2.3,0.9-3.6,0.9
		c-3.5,0-4.3-2.4-4.3-5.2c0-1.7,0.5-5.3,4.2-5.3C116.9,80.9,116.9,84.6,116.9,85.7z M110,85.5h5.8c0-2.2-0.6-3.7-2.7-3.7
		C110.8,81.8,110.1,83.6,110,85.5z"/>
</g>
</svg>
