<svg viewBox="45.9 40.8 38.2 38.2" xmlns="http://www.w3.org/2000/svg">
    <clipPath id="a">
        <path overflow="visible" d="M45.9 40.8h38.2V79H45.9z"/>
    </clipPath>
    <path d="M84.1 59.9C84.1 70.4 75.6 79 65 79c-10.6 0-19.1-8.6-19.1-19.1S54.4 40.8 65 40.8c10.6 0 19.1 8.5 19.1 19.1" clip-path="url(#a)" fill="#e31837"/>
    <path d="M71.7 54.8c-.8-1.2-1.6-2.1-2.1-2.7-8.2-.9-14.1-.1-16.7.4.5.7 1.1 1.8 1.8 3.1 2.6-.6 8.6-1.6 17-.8m-13.3 8.5c.7 1.7 1.3 3.5 1.9 5.4 3.6-1.3 9.5-2.9 17.6-2.9-.7-1.5-1.4-2.8-2-4.1-8.8-.7-15 .8-17.5 1.6m-2.7-5.9c.6 1.2 1.2 2.5 1.9 3.9 2.5-.7 8.3-2 17.4-1.4-.7-1.3-1.4-2.4-2-3.3-8.9-1-14.8.1-17.3.8" clip-path="url(#a)" fill="#fff"/>
</svg>
