<svg viewBox="3 2 18 20" xmlns="http://www.w3.org/2000/svg">
    <defs>
        <style>
            .cls-2{fill:#e31837}
        </style>
    </defs>
    <path fill="none" d="M0 0h24v24H0z" id="Layer_2" data-name="Layer 2"/>
    <g id="Adjusted_copy" data-name="Adjusted copy">
        <path class="cls-2" d="M14.338 2l-3.561 1.472L3 15.086 13.216 22l7.777-11.619L21 6.534zm-3.859 3.714l2.621 4.07a35.252 35.252 0 0 0-4.766-.864zm2.465 14.9l-7.091-4.8c2.819.565 7.331 1.642 8.892 2.112zm2.375-3.548c-1.81-.6-8.194-2.067-10.766-2.491l3.14-4.692a42.649 42.649 0 0 1 10.7 2.6zm4.674-6.983l-1.041 1.555a31.807 31.807 0 0 0-4.427-1.482l-3.44-5.342.354-.529 2.782-1.153L20 7.062z"/>
        <path class="cls-2" transform="rotate(-56.186 15.747 7.054)" d="M15.247 5.15h1v3.807h-1z"/>
    </g>
</svg>
