<?xml version="1.0" encoding="utf-8"?>
<!-- Generator: Adobe Illustrator 24.3.0, SVG Export Plug-In . SVG Version: 6.00 Build 0)  -->
<svg version="1.1" id="Layer_1" xmlns="http://www.w3.org/2000/svg" xmlns:xlink="http://www.w3.org/1999/xlink" x="0px" y="0px"
	 viewBox="0 0 232 28" enable-background="new 0 0 232 28" xml:space="preserve">
<g>
	<path fill="#012169" d="M11.4,8.4c-1.6,0-2.9,1.3-2.9,2.9c0,1.3,0.9,2.4,2.1,2.8v14.4H12V14c1.2-0.3,2.1-1.4,2.1-2.8
		C14.3,9.7,13,8.4,11.4,8.4 M11.4,12.7c-0.8,0-1.4-0.6-1.4-1.4c0-0.8,0.6-1.4,1.4-1.4c0.8,0,1.4,0.6,1.4,1.4
		C12.9,12.1,12.2,12.7,11.4,12.7"/>
	<path fill="#012169" d="M18.6,11.3c0-3.9-3.2-7.1-7.1-7.1s-7.1,3.2-7.1,7.1c0,2.5,1.3,4.7,3.4,6.1l0.8-1.2
		c-1.7-1.1-2.7-2.9-2.7-4.8c0-3.2,2.6-5.7,5.7-5.7c3.2,0,5.7,2.6,5.7,5.7c0,2.1-1.1,4-2.9,5l0.7,1.2C17.2,16.3,18.6,13.9,18.6,11.3"
		/>
	<path fill="#012169" d="M11.4-0.1C5.1-0.1,0,5,0,11.3c0,4.8,3.1,9.2,7.6,10.8l0.5-1.3c-4-1.4-6.7-5.2-6.7-9.4c0-5.5,4.5-10,10-10
		s10,4.5,10,10c0,4.2-2.7,8-6.7,9.4l0.5,1.3c4.6-1.6,7.6-5.9,7.6-10.8C22.9,5,17.7-0.1,11.4-0.1"/>
</g>
<g>
	<path fill="#012169" d="M38,26.2V14.8h-4v-0.9h8.9v0.9H39v11.4H38z"/>
	<path fill="#012169" d="M45,18.3c1.1-0.6,2.4-1,3.2-1c2.3,0,2.4,1.5,2.4,2.7v6.2h-1v-5.9c0-1.3-0.2-2.1-1.7-2.1
		c-0.9,0-2.1,0.5-3,0.9v7.1h-1V13.4h1v2.7C44.9,16.5,44.9,17.9,45,18.3L45,18.3z"/>
	<path fill="#012169" d="M58.6,20.2v6h-0.9l-0.1-1l0,0c-1.4,1.1-2.5,1.1-3,1.1c-2,0-2.5-1.3-2.5-2.4c0-1.6,1.2-2.5,2.8-2.6l2.7-0.1
		v-0.7c0-1.6-0.4-2.3-2-2.3c-0.9,0-1.8,0.2-2.7,0.5L52.7,18c1-0.4,2.2-0.7,3.2-0.7C57.6,17.3,58.6,18.1,58.6,20.2z M55.2,22
		c-1.3,0.1-2,0.7-2,1.7c0,1.2,0.6,1.7,1.8,1.7c0.8,0,1.7-0.4,2.7-1.2v-2.4L55.2,22z"/>
	<path fill="#012169" d="M62,15.5v2h2.6v0.8H62V24c0,0.9,0.2,1.5,1.3,1.5c0.4,0,1-0.1,1.7-0.3l0.2,0.7c-0.6,0.3-1.3,0.4-2,0.4
		c-1.3,0-2.1-0.6-2.1-2v-6.1h-1.3v-0.6l1.3-0.3l0.3-1.8L62,15.5z"/>
	<path fill="#012169" d="M76.4,24.9L76.4,24.9l4.6-11h1v12.3h-1v-9.8l0,0l-4.1,9.8h-1l-4.1-9.5h-0.1v9.5h-1V13.9h1L76.4,24.9z"/>
	<path fill="#012169" d="M90.4,20.2v6h-0.9l-0.1-1l0,0c-1.4,1.1-2.5,1.1-3,1.1c-2,0-2.5-1.3-2.5-2.4c0-1.6,1.2-2.5,2.8-2.6l2.7-0.1
		v-0.7c0-1.6-0.4-2.3-2-2.3c-0.9,0-1.8,0.2-2.7,0.5L84.5,18c1-0.4,2.2-0.7,3.2-0.7C89.5,17.3,90.4,18.1,90.4,20.2z M87,22
		c-1.3,0.1-2,0.7-2,1.7c0,1.2,0.6,1.7,1.8,1.7c0.8,0,1.7-0.4,2.7-1.2v-2.4L87,22z"/>
	<path fill="#012169" d="M98,25.3c-0.8,0.6-1.8,1-2.8,1c-2.4,0-3.2-1.9-3.2-4.3c0-2.7,0.9-4.7,3.4-4.7c0.7,0,1.7,0.2,2.5,0.7v-4.5h1
		v12.7H98V25.3L98,25.3z M98,18.8c-0.5-0.3-1.5-0.7-2.4-0.7c-1.4,0-2.5,0.9-2.5,3.9c0,2.6,0.9,3.5,2.4,3.5c0.8,0,2-0.5,2.5-1.1V18.8
		z"/>
	<path fill="#012169" d="M107.6,21.5V22h-6c0,1.8,0.5,3.5,2.7,3.5c1,0,1.8-0.2,2.8-0.7l0.3,0.7c-1,0.5-2,0.8-3.1,0.8
		c-3,0-3.7-2-3.7-4.4c0-1.5,0.4-4.5,3.7-4.5C107.6,17.3,107.6,20.5,107.6,21.5z M101.6,21.3h5c0-1.9-0.6-3.2-2.4-3.2
		C102.4,18.1,101.8,19.6,101.6,21.3z"/>
	<path fill="#012169" d="M120.9,26.2l-1.1-3.4h-5c-0.4,1.1-0.7,2.2-1,3.4h-1.1l4-12.2h1.4c1.3,4.1,2.7,8.2,4,12.2H120.9z M118,16.8
		c-0.1-0.5-0.4-1.5-0.6-2h-0.1l-0.6,2l-1.6,5.2h4.5C119.1,20.3,118.5,18.5,118,16.8z"/>
	<path fill="#012169" d="M124.3,26.2h-1V13.4h1V26.2z"/>
	<path fill="#012169" d="M127.6,26.2h-1V13.4h1V26.2z"/>
	<path fill="#012169" d="M135.7,15.5v2h2.6v0.8h-2.6V24c0,0.9,0.2,1.5,1.3,1.5c0.4,0,1-0.1,1.7-0.3l0.2,0.7c-0.6,0.3-1.3,0.4-2,0.4
		c-1.3,0-2.1-0.6-2.1-2v-6.1h-1.3v-0.6l1.3-0.3l0.3-1.8L135.7,15.5z"/>
	<path fill="#012169" d="M140.7,18.3c1.1-0.6,2.4-1,3.2-1c2.3,0,2.4,1.5,2.4,2.7v6.2h-1v-5.9c0-1.3-0.2-2.1-1.7-2.1
		c-0.9,0-2.1,0.5-3,0.9v7.1h-1V13.4h1v2.7c0,0.4,0,1.8,0,2.1L140.7,18.3z"/>
	<path fill="#012169" d="M154.8,21.5V22h-6c0,1.8,0.5,3.5,2.7,3.5c1,0,1.8-0.2,2.8-0.7l0.3,0.7c-1,0.5-2,0.8-3.1,0.8
		c-3,0-3.7-2-3.7-4.4c0-1.5,0.4-4.5,3.7-4.5C154.9,17.3,154.8,20.5,154.8,21.5z M148.9,21.3h5c0-1.9-0.6-3.2-2.4-3.2
		C149.6,18.1,149,19.6,148.9,21.3z"/>
	<path fill="#012169" d="M161.1,26.2V13.9h3.4c3.9,0,5.2,2.8,5.2,6.1s-1.5,6.1-5.4,6.1h-3.2V26.2z M162.2,14.8v10.6h2
		c1.1,0,4.5-0.1,4.5-5.2c0-5.2-3.1-5.4-4.4-5.4C164.3,14.8,162.2,14.8,162.2,14.8z"/>
	<path fill="#012169" d="M172.5,15.9c-0.4,0-0.7-0.3-0.7-0.7s0.3-0.8,0.7-0.8s0.7,0.3,0.7,0.8C173.2,15.6,172.9,15.9,172.5,15.9z
		 M172,26.2v-8.7h1v8.7H172z"/>
	<path fill="#012169" d="M176,18.2h-1.2v-0.6l1.2-0.3v-1.5c0-1.7,1-2.6,2.6-2.6c0.4,0,1,0.1,1.6,0.2l-0.1,0.8
		c-0.4-0.1-0.9-0.1-1.3-0.1c-1.2,0-1.8,0.5-1.8,1.7v1.6h2.6v0.8H177v8h-1V18.2z"/>
	<path fill="#012169" d="M181.7,18.2h-1.2v-0.6l1.2-0.3v-1.5c0-1.7,1-2.6,2.6-2.6c0.4,0,1,0.1,1.6,0.2l-0.1,0.8
		c-0.4-0.1-0.9-0.1-1.3-0.1c-1.2,0-1.8,0.5-1.8,1.7v1.6h2.6v0.8h-2.6v8h-1V18.2z"/>
	<path fill="#012169" d="M193.2,21.5V22h-6c0,1.8,0.5,3.5,2.7,3.5c1,0,1.8-0.2,2.8-0.7l0.3,0.7c-1,0.5-2,0.8-3.1,0.8
		c-3,0-3.7-2-3.7-4.4c0-1.5,0.4-4.5,3.7-4.5C193.3,17.3,193.2,20.5,193.2,21.5z M187.3,21.3h5c0-1.9-0.6-3.2-2.4-3.2
		C188,18.1,187.4,19.6,187.3,21.3z"/>
	<path fill="#012169" d="M195.9,18.9c0.8-1.1,2.1-1.6,3.2-1.6v1c-0.8,0-2.1,0.2-3.2,1.4v6.4h-1v-8.7h0.9L195.9,18.9z"/>
	<path fill="#012169" d="M206.8,21.5V22h-6c0,1.8,0.5,3.5,2.7,3.5c1,0,1.8-0.2,2.8-0.7l0.3,0.7c-1,0.5-2,0.8-3.1,0.8
		c-3,0-3.7-2-3.7-4.4c0-1.5,0.4-4.5,3.7-4.5C206.9,17.3,206.8,20.5,206.8,21.5z M200.9,21.3h5c0-1.9-0.6-3.2-2.4-3.2
		C201.6,18.1,201,19.6,200.9,21.3z"/>
	<path fill="#012169" d="M214,26.2v-5.9c0-1.3-0.3-2.2-1.7-2.2c-0.9,0-2.1,0.5-3,0.9v7.1h-1v-8.7h1c0,0.1,0,0.7,0,0.8c0,0,0,0,0.1,0
		c1.1-0.6,2.3-1,3.2-1c2.3,0,2.4,1.4,2.4,2.6v6.3L214,26.2L214,26.2z"/>
	<path fill="#012169" d="M220.3,25.5c0.9,0,1.6-0.2,2.5-0.7l0.4,0.7c-0.7,0.6-1.8,0.9-2.9,0.9c-2.7,0-3.7-1.8-3.7-4.4
		c0-1.8,0.6-4.7,3.8-4.7c0.8,0,1.8,0.2,2.5,0.6l-0.4,0.7c-0.9-0.4-1.5-0.5-2.1-0.5c-1.9,0-2.8,1.5-2.8,3.7
		C217.6,23.9,218.2,25.5,220.3,25.5z"/>
	<path fill="#012169" d="M231.2,21.5V22h-6c0,1.8,0.5,3.5,2.7,3.5c1,0,1.8-0.2,2.8-0.7l0.3,0.7c-1,0.5-2,0.8-3.1,0.8
		c-3,0-3.7-2-3.7-4.4c0-1.5,0.4-4.5,3.7-4.5C231.2,17.3,231.2,20.5,231.2,21.5z M225.2,21.3h5c0-1.9-0.6-3.2-2.4-3.2
		C226,18.1,225.4,19.6,225.2,21.3z"/>
</g>
</svg>
