<?xml version="1.0" encoding="utf-8"?>
<!-- Generator: Adobe Illustrator 24.3.0, SVG Export Plug-In . SVG Version: 6.00 Build 0)  -->
<svg version="1.1" id="Layer_1" xmlns="http://www.w3.org/2000/svg" xmlns:xlink="http://www.w3.org/1999/xlink" x="0px" y="0px"
	 viewBox="0 0 400 400" enable-background="new 0 0 400 400" xml:space="preserve">
	 <svg y="100">
		<g>
			<path fill="#231F20" d="M288.3,92.9c-4.9-4.8-11.3-7.5-18.1-7.7c-5,0-9.8,2-13.4,5.5l-99.3,101.5l-1.7,36.3l36.2-2.6l99.2-101.5
				c3.5-3.6,5.3-8.5,5.2-13.5C296.2,104.1,293.3,97.6,288.3,92.9z M280.8,114.1l-95.3,97.5l-14.2,1l0.7-14.2l95.4-97.5
				c0.8-0.7,1.9-1.1,3-1.1c2.9,0.3,5.6,1.5,7.7,3.5l0,0c2.2,2,3.5,4.8,3.7,7.7C281.9,112.2,281.5,113.3,280.8,114.1z"/>
			<polygon fill="#231F20" points="223.2,281.8 18.2,281.8 18.2,18.2 223.2,18.2 223.2,91.4 237.9,91.4 237.9,3.5 3.5,3.5 3.5,296.5 
				237.9,296.5 237.9,223.2 223.2,223.2 	"/>
			<path fill="#231F20" d="M154,99.9v-4.1C152.2,78.5,138.1,65,120.7,64V40.1h-14.6V64c-17.4,1-31.5,14.4-33.3,31.8
				c0,18.1,13.4,28.9,39.7,32.2c26.9,3.4,26.9,13.8,26.9,17.7c0,9.6-11.9,17.7-26,17.7s-26-8.1-26-17.7v-4.2H72.8v4.2
				c1.8,17.3,15.9,30.7,33.3,31.6v23.9h14.6v-23.9c17.4-0.9,31.5-14.4,33.3-31.7c0-18.1-13.4-28.9-39.7-32.2
				C87.5,110,87.5,99.6,87.5,95.7c0-9.6,11.9-17.7,26-17.7s26,8.1,26,17.7v4.2L154,99.9z"/>
		</g>
	</svg>
</svg>
