<?xml version="1.0" encoding="utf-8"?>
<svg version="1.1" id="Layer_1" x="0" y="0" viewBox="0 0 238 86" preserveAspectRatio="none" xmlns="http://www.w3.org/2000/svg">
  <style>
        .st0,.st1{fill:#012169}.st1{fill-rule:evenodd;clip-rule:evenodd}
    </style>
  <path class="st0" d="M 107.592 68.238 L 104.792 68.238 L 102.392 73.238 L 100.092 68.238 L 97.292 68.238 L 97.292 77.538 L 99.392 77.538 L 99.392 71.138 L 102.492 77.538 L 105.492 71.238 L 105.492 77.538 L 107.592 77.538 L 107.592 68.238 Z M 14.892 77.538 L 18.992 77.538 C 21.092 77.538 22.092 76.438 22.092 74.938 C 22.092 73.738 21.392 72.838 20.092 72.638 C 21.292 72.338 21.792 71.638 21.792 70.538 C 21.792 69.238 20.792 68.138 18.692 68.138 L 14.792 68.138 L 14.792 77.538 Z M 44.692 68.238 L 42.492 68.238 L 42.492 74.338 L 38.492 68.238 L 36.092 68.238 L 36.092 77.538 L 38.292 77.538 L 38.292 71.438 L 42.292 77.538 L 44.692 77.538 L 44.692 68.238 Z M 125.992 77.538 L 128.492 77.538 L 126.192 73.538 C 127.492 73.238 128.092 72.238 128.092 70.938 C 128.092 69.238 127.092 68.138 124.692 68.138 L 121.092 68.138 L 121.092 77.438 L 123.392 77.438 L 123.392 73.738 L 123.892 73.738 L 125.992 77.538 Z M 30.192 68.238 L 27.792 68.238 L 24.292 77.538 L 26.692 77.538 L 27.292 75.638 L 30.692 75.638 L 31.292 77.538 L 33.692 77.538 L 30.192 68.238 Z M 204.792 71.238 C 204.792 69.338 203.792 68.238 201.392 68.238 L 197.792 68.238 L 197.792 77.538 L 200.092 77.538 L 200.092 74.138 L 201.392 74.138 C 203.792 74.238 204.792 73.038 204.792 71.238 Z M 53.792 77.538 L 50.692 72.838 L 50.692 77.538 L 48.392 77.538 L 48.392 68.238 L 50.692 68.238 L 50.692 72.738 L 53.592 68.238 L 56.192 68.238 L 53.092 72.738 L 56.492 77.638 L 53.792 77.638 Z M 111.392 77.538 L 117.792 77.538 L 117.792 75.738 L 113.692 75.738 L 113.692 73.738 L 116.892 73.738 L 116.892 71.938 L 113.692 71.938 L 113.692 70.038 L 117.492 70.038 L 117.892 68.238 L 111.392 68.238 L 111.392 77.538 Z M 144.592 75.138 C 143.692 75.738 142.892 75.938 142.192 75.938 C 140.392 75.938 139.292 74.738 139.292 72.938 C 139.292 71.138 140.492 70.038 142.192 70.038 C 142.992 70.038 143.692 70.238 144.592 70.838 L 144.592 68.738 C 143.792 68.338 142.892 68.138 141.892 68.138 C 138.792 68.138 136.792 70.238 136.792 73.038 C 136.792 75.838 138.692 77.938 141.892 77.938 C 142.992 77.938 143.892 77.738 144.692 77.338 L 144.692 75.138 Z M 232.292 77.538 L 234.592 77.538 L 234.592 74.038 L 237.992 68.138 L 235.392 68.138 L 233.492 71.738 L 231.592 68.138 L 228.892 68.138 L 232.292 73.938 L 232.292 77.538 Z M 74.392 77.538 L 76.692 77.538 L 76.692 73.838 L 79.692 73.838 L 79.692 72.038 L 76.692 72.038 L 76.692 69.938 L 80.292 69.938 L 80.692 68.138 L 74.392 68.138 L 74.392 77.538 Z M 131.392 77.538 L 133.692 77.538 L 133.692 68.138 L 131.392 68.138 L 131.392 77.538 Z M 18.492 73.638 C 19.292 73.638 19.792 74.038 19.792 74.738 C 19.792 75.538 19.292 75.838 18.492 75.838 L 17.192 75.838 L 17.192 73.538 L 18.492 73.538 Z M 201.092 69.938 C 201.992 69.938 202.492 70.338 202.492 71.138 C 202.492 71.938 201.992 72.338 201.092 72.338 L 200.192 72.338 L 200.192 69.938 L 201.092 69.938 Z M 124.392 69.938 C 125.292 69.938 125.792 70.338 125.792 71.038 C 125.792 71.838 125.292 72.238 124.392 72.238 L 123.492 72.238 L 123.492 69.838 L 124.392 69.838 Z M 18.292 69.838 C 19.092 69.838 19.592 70.138 19.592 70.938 C 19.592 71.738 19.092 72.038 18.292 72.038 L 17.192 72.038 L 17.192 69.838 L 18.292 69.838 Z M 28.992 70.438 L 30.092 73.838 L 27.892 73.838 L 28.992 70.438 Z M 5.892 68.238 L 3.492 68.238 L -0.008 77.538 L 2.392 77.538 L 2.992 75.638 L 6.392 75.638 L 6.992 77.538 L 9.392 77.538 L 5.892 68.238 Z M 4.692 70.438 L 5.792 73.838 L 3.592 73.838 L 4.692 70.438 Z M 66.892 77.738 C 63.792 77.738 61.892 75.638 61.892 72.838 C 61.892 70.138 63.892 67.938 66.892 67.938 C 69.992 67.938 71.892 70.038 71.892 72.838 C 71.992 75.638 69.992 77.738 66.892 77.738 Z M 66.892 75.838 C 68.292 75.838 69.392 74.738 69.392 72.838 C 69.392 71.038 68.292 69.838 66.892 69.838 C 65.492 69.838 64.392 70.938 64.392 72.838 C 64.392 74.738 65.492 75.838 66.892 75.838 Z M 90.892 68.238 L 88.492 68.238 L 84.992 77.538 L 87.392 77.538 L 87.992 75.638 L 91.392 75.638 L 91.992 77.538 L 94.392 77.538 L 90.892 68.238 Z M 89.692 70.438 L 90.792 73.838 L 88.592 73.838 L 89.692 70.438 Z M 152.592 68.238 L 150.192 68.238 L 146.692 77.538 L 149.092 77.538 L 149.692 75.638 L 153.092 75.638 L 153.692 77.538 L 156.092 77.538 L 152.592 68.238 Z M 151.392 70.438 L 152.492 73.838 L 150.292 73.838 L 151.392 70.438 Z M 169.092 75.138 C 168.192 75.738 167.392 75.938 166.692 75.938 C 164.892 75.938 163.792 74.738 163.792 72.938 C 163.792 71.138 164.992 70.038 166.692 70.038 C 167.492 70.038 168.192 70.238 169.092 70.838 L 169.092 68.738 C 168.292 68.338 167.392 68.138 166.392 68.138 C 163.292 68.138 161.292 70.238 161.292 73.038 C 161.292 75.838 163.192 77.938 166.392 77.938 C 167.492 77.938 168.392 77.738 169.192 77.338 L 169.192 75.138 Z M 176.192 77.738 C 173.092 77.738 171.192 75.638 171.192 72.838 C 171.192 70.138 173.192 67.938 176.192 67.938 C 179.292 67.938 181.192 70.038 181.192 72.838 C 181.192 75.638 179.192 77.738 176.192 77.738 Z M 176.192 75.838 C 177.592 75.838 178.692 74.738 178.692 72.838 C 178.692 71.038 177.592 69.838 176.192 69.838 C 174.792 69.838 173.692 70.938 173.692 72.838 C 173.592 74.738 174.692 75.838 176.192 75.838 Z M 194.192 68.238 L 191.392 68.238 L 188.992 73.238 L 186.692 68.238 L 183.892 68.238 L 183.892 77.538 L 185.992 77.538 L 185.992 71.138 L 189.092 77.538 L 192.092 71.238 L 192.092 77.538 L 194.192 77.538 L 194.192 68.238 Z M 211.792 68.238 L 209.392 68.238 L 205.892 77.538 L 208.292 77.538 L 208.892 75.638 L 212.292 75.638 L 212.892 77.538 L 215.292 77.538 L 211.792 68.238 Z M 210.592 70.438 L 211.692 73.838 L 209.492 73.838 L 210.592 70.438 Z M 226.392 68.238 L 224.192 68.238 L 224.192 74.338 L 220.192 68.238 L 217.792 68.238 L 217.792 77.538 L 219.992 77.538 L 219.992 71.438 L 223.992 77.538 L 226.392 77.538 L 226.392 68.238 Z M 24.292 58.938 L 19.592 58.938 L 19.592 44.938 L 12.792 58.938 L 5.992 44.838 L 5.992 58.838 L 1.392 58.838 L 1.392 37.838 L 7.392 37.838 L 12.792 49.138 L 18.292 37.838 L 24.292 37.838 L 24.292 58.938 Z M 34.092 58.938 L 48.392 58.938 L 48.392 54.938 L 39.192 54.938 L 39.192 50.238 L 46.492 50.238 L 46.492 46.338 L 39.192 46.338 L 39.192 41.938 L 47.692 41.938 L 48.592 37.938 L 34.092 37.938 L 34.092 58.938 Z M 73.492 58.938 L 67.892 58.938 L 63.292 50.638 L 61.992 50.638 L 61.992 58.938 L 56.992 58.938 L 56.992 37.938 L 64.992 37.938 C 70.192 37.938 72.392 40.438 72.392 44.238 C 72.392 47.238 70.992 49.238 68.192 50.038 L 73.492 58.938 Z M 67.292 44.438 C 67.292 42.738 66.192 41.738 64.092 41.738 L 61.892 41.738 L 61.892 47.138 L 64.092 47.138 C 66.192 47.138 67.292 46.238 67.292 44.438 Z M 97.592 58.938 L 91.992 58.938 L 87.392 50.638 L 86.092 50.638 L 86.092 58.938 L 81.092 58.938 L 81.092 37.938 L 89.192 37.938 C 94.392 37.938 96.592 40.438 96.592 44.238 C 96.592 47.238 95.192 49.238 92.392 50.038 L 97.592 58.938 Z M 91.492 44.438 C 91.492 42.738 90.392 41.738 88.292 41.738 L 86.092 41.738 L 86.092 47.138 L 88.292 47.138 C 90.292 47.138 91.492 46.238 91.492 44.438 Z M 105.192 58.938 L 110.292 58.938 L 110.292 37.938 L 105.192 37.938 L 105.192 58.938 Z M 120.292 58.938 L 134.392 58.938 L 134.392 54.738 L 125.392 54.738 L 125.392 37.938 L 120.292 37.938 L 120.292 58.938 Z M 141.692 58.938 L 155.792 58.938 L 155.792 54.738 L 146.792 54.738 L 146.792 37.938 L 141.692 37.938 L 141.692 58.938 Z"/>
  <path class="st1" d="M 215.192 57.238 C 215.192 56.338 215.992 55.538 216.892 55.538 C 217.892 55.538 218.592 56.338 218.592 57.238 C 218.592 58.138 217.792 58.938 216.892 58.938 C 215.892 58.938 215.192 58.138 215.192 57.238 M 215.492 57.238 C 215.492 58.038 216.092 58.638 216.892 58.638 C 217.692 58.638 218.292 58.038 218.292 57.238 C 218.292 56.538 217.692 55.938 216.892 55.938 C 216.092 55.838 215.492 56.438 215.492 57.238"/>
  <path class="st1" d="M 217.792 58.138 L 217.492 58.138 L 216.892 57.238 L 216.592 57.238 L 216.592 58.138 L 216.292 58.138 L 216.292 56.238 L 217.092 56.238 C 217.292 56.238 217.392 56.238 217.592 56.338 C 217.692 56.438 217.792 56.538 217.792 56.738 C 217.792 57.138 217.492 57.238 217.192 57.238 L 217.792 58.138 Z M 216.892 57.038 C 217.192 57.038 217.592 57.038 217.592 56.738 C 217.592 56.538 217.392 56.438 217.092 56.438 L 216.592 56.438 L 216.592 57.038 L 216.892 57.038 Z"/>
  <path class="st0" d="M 180.892 27.938 C 179.992 27.138 177.992 27.138 176.992 27.938 L 177.292 28.538 C 178.492 28.338 179.492 28.338 180.492 28.538 L 180.892 27.938 Z"/>
  <path class="st0" d="M 211.792 44.338 C 210.492 42.538 210.092 40.738 208.192 38.738 C 210.792 38.338 212.592 37.138 213.492 35.238 C 214.292 33.438 214.292 31.638 213.392 29.938 C 211.492 26.338 206.292 24.638 202.292 23.838 C 197.792 23.038 195.992 21.938 195.292 19.738 C 195.292 19.638 194.992 18.538 195.692 17.638 C 196.792 16.138 200.092 16.338 200.392 16.238 C 201.392 16.338 202.092 16.938 203.092 17.938 C 204.192 19.138 205.692 20.538 208.192 20.538 C 209.692 20.538 211.492 19.938 213.292 18.038 C 214.792 16.438 215.992 14.038 216.092 13.838 L 200.092 13.838 C 197.092 13.838 194.992 14.638 193.792 16.138 C 192.392 18.038 192.992 20.238 193.092 20.238 C 194.192 23.938 197.492 25.238 201.992 26.038 C 206.992 26.938 210.292 28.638 211.392 30.838 C 211.892 31.838 211.892 32.938 211.392 34.038 C 210.592 35.838 208.392 36.538 204.692 36.238 C 201.392 36.038 196.692 34.538 193.392 30.938 C 191.892 29.338 190.092 26.738 188.292 23.438 C 188.192 23.338 187.792 22.538 187.292 21.638 L 189.792 21.638 C 189.692 20.838 189.092 19.738 188.492 19.038 C 189.492 17.838 189.892 16.438 189.892 15.238 C 189.792 9.638 183.992 9.738 182.092 9.738 C 183.392 11.838 183.992 13.738 183.392 14.138 C 182.792 14.538 181.292 13.538 178.892 13.538 C 176.492 13.538 174.992 14.538 174.392 14.138 C 173.792 13.738 174.292 11.838 175.692 9.738 C 173.792 9.638 167.992 9.638 167.892 15.238 C 167.892 16.538 168.292 17.838 169.392 19.138 C 168.692 19.738 168.092 20.938 168.092 21.638 L 170.192 21.838 C 169.092 25.038 167.692 29.638 166.892 32.638 C 165.992 35.938 166.692 39.138 168.792 41.838 C 168.092 43.138 167.992 44.738 168.292 46.038 C 170.092 53.938 169.192 54.838 168.492 58.738 L 175.592 58.738 C 175.692 57.938 176.392 52.438 176.592 49.138 C 178.192 50.538 179.692 51.938 180.992 53.038 C 183.192 54.938 185.392 54.838 185.992 54.838 C 187.592 54.838 189.392 54.638 190.792 54.438 C 190.792 54.438 190.992 51.838 191.192 49.538 L 192.492 49.438 L 192.592 51.138 L 194.792 50.938 C 193.792 54.738 191.692 57.338 190.892 58.838 L 198.592 58.838 C 198.892 58.338 200.492 55.638 201.492 53.238 C 203.992 54.238 205.892 52.838 206.292 52.538 C 205.892 55.238 204.392 58.138 203.992 58.938 L 212.692 58.938 C 212.592 57.638 212.192 55.838 215.292 46.938 C 213.392 46.138 212.292 45.038 211.792 44.338 Z M 211.692 16.238 C 210.792 17.138 209.592 18.138 208.192 18.138 C 206.692 18.138 205.892 17.338 204.792 16.238 L 211.692 16.238 Z M 173.292 56.538 L 171.192 56.538 C 172.392 50.938 169.792 45.438 170.392 43.938 C 170.992 44.438 173.492 46.838 173.992 47.138 C 174.092 48.838 173.692 53.338 173.292 56.538 Z M 197.092 56.538 L 195.092 56.538 C 195.792 55.138 196.692 53.238 197.292 50.838 L 198.592 50.738 C 198.792 51.138 199.092 51.538 199.392 51.938 C 198.692 53.538 197.792 55.338 197.092 56.538 Z M 202.692 51.238 C 201.492 51.038 200.792 50.038 200.492 49.238 C 201.192 49.438 204.192 49.938 204.992 50.338 C 204.692 50.738 203.892 51.438 202.692 51.238 Z M 210.192 56.538 L 207.592 56.538 C 208.192 54.938 208.892 52.538 208.492 50.938 C 207.992 48.338 205.192 47.838 202.792 47.338 C 201.392 47.038 199.892 46.738 198.892 46.138 C 197.192 45.138 197.092 42.738 197.692 41.238 L 195.192 41.238 C 194.292 44.938 196.192 47.438 197.892 48.238 L 197.892 48.438 L 194.692 48.738 L 194.592 47.038 L 188.692 47.538 C 188.892 46.638 189.092 45.638 189.092 44.638 L 186.692 44.638 C 186.692 46.838 185.592 49.338 184.792 50.238 L 188.692 49.938 C 188.592 51.038 188.592 51.938 188.492 52.538 C 187.092 52.638 185.392 52.738 184.692 52.638 C 183.192 52.338 181.992 51.338 181.392 50.038 C 180.692 48.438 181.092 46.338 182.492 44.138 L 180.692 42.538 C 179.192 44.838 178.692 46.738 178.692 48.338 C 177.192 47.038 172.592 42.838 171.992 42.238 C 169.192 39.738 168.292 36.838 169.092 33.638 C 169.992 30.338 171.692 24.838 172.792 21.738 C 173.292 20.138 173.392 20.038 173.592 19.438 C 171.692 19.038 170.192 17.238 170.192 15.538 C 170.192 14.038 171.292 12.638 172.492 12.538 C 171.992 13.438 172.092 14.938 172.392 15.538 C 172.692 16.138 173.392 17.038 174.592 17.038 C 175.392 17.038 176.892 16.338 178.892 16.338 C 180.992 16.338 182.392 17.038 183.192 17.038 C 184.392 17.038 185.092 16.138 185.392 15.538 C 185.692 14.938 185.792 13.438 185.292 12.538 C 186.492 12.738 187.592 14.138 187.592 15.538 C 187.592 16.838 186.692 18.938 184.592 18.938 L 183.592 18.938 C 180.192 19.038 179.992 21.738 180.592 24.438 C 180.792 25.238 180.492 25.838 180.492 25.838 L 176.092 25.838 L 176.892 27.338 C 178.192 27.038 180.392 27.038 181.592 27.338 L 182.492 25.838 L 182.092 24.538 L 184.292 21.338 C 184.992 22.638 186.192 24.838 186.192 24.938 C 187.792 27.838 188.492 30.438 188.192 32.838 C 188.092 33.738 187.892 34.538 187.592 35.238 L 189.492 36.938 C 190.392 35.338 190.692 33.238 190.692 31.838 C 190.992 32.238 191.392 32.638 191.692 33.038 C 195.092 36.738 199.692 38.438 203.392 38.938 C 206.592 39.438 207.792 42.038 208.692 43.638 C 209.992 46.038 210.592 46.838 212.492 48.238 C 211.992 48.738 210.492 53.438 210.192 56.538 Z M 183.292 19.938 C 183.292 21.138 182.692 22.038 181.292 22.138 C 181.192 20.838 181.892 19.938 183.292 19.938 Z"/>
  <path class="st0" d="M 176.892 22.238 C 175.292 22.138 174.592 21.138 174.592 19.738 C 176.192 19.838 176.992 20.838 176.892 22.238 Z"/>
</svg>