<?xml version="1.0" encoding="utf-8"?>
<!-- Generator: Adobe Illustrator 24.3.0, SVG Export Plug-In . SVG Version: 6.00 Build 0)  -->
<svg version="1.1" id="Layer_1" xmlns="http://www.w3.org/2000/svg" xmlns:xlink="http://www.w3.org/1999/xlink" x="0px" y="0px"
	 viewBox="0 0 400 400" enable-background="new 0 0 400 400" xml:space="preserve">
	 <svg y="100">
		<rect x="203.4" y="126.5" transform="matrix(5.864146e-03 -1 1 5.864146e-03 79.0318 346.64)" fill="#231F20" width="21" height="14.1"/>
		<path fill="#231F20" d="M273.2,141.6c-6.3-19.4-18.5-36.3-35-48.3l3.6-51l-48.3,28.9l-2.3-0.7L187.3,84l8.1,2.4l30.4-18.2l-2.1,31.8
			l5.1,3.8c14.9,10.5,25.9,25.6,31.3,43l1.9,6.7l22.2,5l-0.1,23.9l-25.2,4.6l-2.6,5.6c-9.1,18.3-23.9,33-42.2,42.1l-10.9,5.7l16.5,28
			l-17.4,9.8l-18.8-32.1l-8,1.4c-8.4,1.4-17,2.1-25.6,2.1c-8.6-0.1-17.1-0.9-25.5-2.4l-7.9-1.4l-19.3,31.7l-17.3-10l16.9-27.7L86,234
			c-27.7-12.7-46-39.7-47.6-70.1c1.8-29.8,19.8-56.1,46.8-68.8c1.4-0.8,3-1.5,4.6-2.2L84.1,80c-1.9,0.8-4,1.8-5.7,2.8
			c-29.7,14.4-49.9,43-53.7,75.7c-1.8-0.1-3.5-0.7-4.9-1.8c-0.7-0.6-3-2.4-3-8.6L2.7,148c-0.5,7.4,2.5,14.7,8.2,19.6
			c4,3.1,8.9,4.7,14,4.8c4.6,31.2,24,58.3,52.2,72.6l-16.6,27.3l41.6,24.1l21.4-35.2c17.5,3,35.3,3.2,52.8,0.3l21,35.5l41.8-23.7
			l-16.3-27.6c19.7-10.4,35.7-26.6,45.8-46.4l29.4-5.4l0.3-46.9L273.2,141.6z"/>
		<path fill="#231F20" d="M113.4,91.4l2.5,1.4l2.8-0.8c14-3.8,28.5-5.4,43-4.7l2.9,0.2l2.2-1.9c19.4-17,21.3-46.5,4.3-65.9
			c-8.6-9.8-20.9-15.6-34-15.9c-12.4-0.2-24.4,4.4-33.4,13C85.1,34.5,84.4,64,102,82.6C105.4,86.1,109.2,89.1,113.4,91.4z M113.4,27
			c6.1-5.8,14.1-9,22.5-9h0.8c18,0.4,32.2,15.3,31.9,33.3c-0.2,8.2-3.4,16-9.1,21.9c-14-0.5-28,1-41.6,4.5c-15-9.9-19.1-30-9.2-45
			C110.1,30.5,111.7,28.6,113.4,27L113.4,27z"/>
	</svg>
</svg>
