<?xml version="1.0" encoding="utf-8"?>
<!-- Generator: Adobe Illustrator 23.0.3, SVG Export Plug-In . SVG Version: 6.00 Build 0)  -->
<svg version="1.1" id="Layer_5" xmlns="http://www.w3.org/2000/svg" xmlns:xlink="http://www.w3.org/1999/xlink" x="0px" y="0px"
	 viewBox="0 0 40 40" style="enable-background:new 0 0 40 40;" xml:space="preserve">
<style type="text/css">
	.st0{clip-path:url(#SVGID_2_);}
</style>
<g>
	<defs>
		<path id="SVGID_1_" d="M14.8,17.6v1.9c1.5,0.3,2.5,1.3,2.5,2.5v0.3h-1.4V22c0-0.7-0.8-1.2-1.8-1.2c-1,0-1.8,0.6-1.8,1.2
			c0,0.3,0,1,1.9,1.2c2.1,0.3,3.2,1.1,3.2,2.6c0,1.2-1.1,2.3-2.5,2.5v1.9h-1.4v-1.9c-1.5-0.3-2.5-1.3-2.5-2.5v-0.3h1.4v0.3
			c0,0.7,0.8,1.2,1.8,1.2c1,0,1.8-0.6,1.8-1.2c0-0.3,0-1-1.9-1.2c-2.1-0.3-3.1-1.2-3.1-2.6c0-1.2,1.1-2.3,2.5-2.5v-1.9H14.8z
			 M9.1,15.6H1.6v16.7h7.5c-2.8-1.7-4.7-4.8-4.7-8.3C4.3,20.4,6.3,17.3,9.1,15.6z M14.1,15.6c-4.6,0-8.3,3.7-8.3,8.3
			s3.7,8.3,8.3,8.3s8.3-3.7,8.3-8.3S18.7,15.6,14.1,15.6z M26.6,15.6h-7.5c2.8,1.7,4.7,4.8,4.7,8.3c0,3.5-1.9,6.6-4.7,8.3h7.5V15.6z
			 M28,14.2v19.5H0.2V14.2H28z"/>
	</defs>
	<clipPath id="SVGID_2_">
		<use xlink:href="#SVGID_1_"  style="overflow:visible;"/>
	</clipPath>
	<rect x="-2.1" y="11.9" class="st0" width="32.4" height="24.1"/>
</g>
</svg>
