<?xml version="1.0" encoding="utf-8"?>
<!-- Generator: Adobe Illustrator 24.3.0, SVG Export Plug-In . SVG Version: 6.00 Build 0)  -->
<svg version="1.1" id="Layer_1" xmlns="http://www.w3.org/2000/svg" xmlns:xlink="http://www.w3.org/1999/xlink" x="0px" y="0px"
	 viewBox="0 0 400 400" enable-background="new 0 0 400 400" xml:space="preserve">
	 <svg y="100">
		<g>
			<path fill="#231F20" d="M241.9,146.9c16.9-14.7,25.9-36.6,24.2-58.9v-7.2c2.4-21-12.7-40-33.8-42.4c-2.9-0.3-5.8-0.3-8.7,0
				c-21-2.4-40,12.6-42.5,33.6c-0.3,2.9-0.3,5.8,0,8.7v7.2c-1.4,21.6,6.8,42.6,22.4,57.6c-7.1,1.5-13.9,4.1-20.2,7.6
				c-6.5-12-19.5-19-33.1-17.6c-3,0-6.1,0.3-9.1,0.8c-10.6-14-25.6-23.9-42.6-28c14.2-15.3,21.5-35.4,20.3-56v-7.2
				c2.4-21-12.8-40-33.8-42.4c-2.9-0.3-5.8-0.3-8.7,0c-21-2.4-40,12.6-42.5,33.6c-0.3,2.9-0.3,5.8,0,8.7v7.2
				c-1.4,21.4,6.7,42.3,22.1,57.3C23.8,120.6,2.3,151,2.6,185v112.5h58.9v-14.7H17.4V185c-0.5-29.4,19.1-55.4,47.5-62.9
				c22.6-5.4,46.4,2.2,61.7,19.8c-9.5,7.3-14.7,18.9-13.7,30.8v6.1c-1.4,19.2,6.3,38,20.6,50.8c-28.5,10.1-47.2,37.6-46.1,67.8h14.7
				c0-27.3,18-55.5,48-55.5c30.9,0,47.5,28.6,47.5,55.5h14.7c1.7-30.3-17-58-45.8-67.7c14.5-12.8,22.2-31.7,20.8-51v-6.1
				c0-1.6-0.2-3-0.3-4.5c13.9-8.8,30.8-11.8,46.9-8.3c29,7.2,49.1,33.5,48.5,63.3v59.6h-58.9v14.7h73.7v-74.3
				C297.8,188.3,275.3,157.2,241.9,146.9z M76.3,102.7c-15.5,0-27.7-22.1-27.7-50.4v-7.2c0-19.3,8.3-27.6,27.7-27.6
				s27.8,8.3,27.8,27.6v7.2C104.1,80.6,91.9,102.7,76.3,102.7z M172.8,178.8c0,25.9-11.7,41.9-22.6,41.9c-10.8,0-22.6-16-22.6-41.9
				v-6.1c0-15.8,6.8-22.5,22.6-22.5s22.6,6.7,22.6,22.5V178.8z M223.7,138.3c-15.6,0-27.7-22.1-27.7-50.4v-7.3
				c0-19.3,8.3-27.6,27.7-27.6s27.8,8.3,27.8,27.6v7.3C251.4,116.1,239.2,138.3,223.7,138.3z"/>
		</g>
	</svg>
</svg>
